# xmcd
#
# Track frame offsets:
#	150
#	16162
#	30285
#	45837
#	61470
#	79115
#	99887
#	114820
#	134290
#	154420
#
# Disc length: 2280 seconds
#
# Revision: 0
# Processed by: cddbd v1.5.2PL0 Copyright (c) Steve Scherf et al.
# Submitted via: audiograbber 1.83.01
#
DISCID=6608e60a
DTITLE=Farmer's Daughter - Makin' Hay
DYEAR=1996
DGENRE=Country
TTITLE0=Cornfields or Cadillacs
TTITLE1=Lonely Gypsy Wind
TTITLE2=Now That I'm On My Own
TTITLE3=You Said
TTITLE4=Inclemency
TTITLE5=Ode to Billie Joe
TTITLE6=Tall Drink of Water
TTITLE7=Walking Away for You
TTITLE8=This That and the Other Thing
TTITLE9=What It's All About
EXTD=YEAR: 1996
EXTT0=
EXTT1=
EXTT2=
EXTT3=
EXTT4=
EXTT5=
EXTT6=
EXTT7=
EXTT8=
EXTT9=
PLAYORDER=
